<?xml version="1.0" encoding="UTF-8" standalone="no"?>
<!-- Created with Inkscape (http://www.inkscape.org/) -->

<svg
   width="14.027732mm"
   height="15.043735mm"
   viewBox="0 0 14.027732 15.043735"
   version="1.1"
   id="svg5"
   inkscape:version="1.1 (c68e22c387, 2021-05-23)"
   sodipodi:docname="LogoErgolist.svg"
   xmlns:inkscape="http://www.inkscape.org/namespaces/inkscape"
   xmlns:sodipodi="http://sodipodi.sourceforge.net/DTD/sodipodi-0.dtd"
   xmlns="http://www.w3.org/2000/svg"
   xmlns:svg="http://www.w3.org/2000/svg">
  <sodipodi:namedview
     id="namedview7"
     pagecolor="#ffffff"
     bordercolor="#999999"
     borderopacity="1"
     inkscape:pageshadow="0"
     inkscape:pageopacity="0"
     inkscape:pagecheckerboard="0"
     inkscape:document-units="mm"
     showgrid="false"
     inkscape:snap-nodes="false"
     inkscape:zoom="2.6205012"
     inkscape:cx="36.252607"
     inkscape:cy="29.956101"
     inkscape:window-width="1366"
     inkscape:window-height="705"
     inkscape:window-x="-8"
     inkscape:window-y="-8"
     inkscape:window-maximized="1"
     inkscape:current-layer="layer1" />
  <defs
     id="defs2" />
  <g
     inkscape:label="Camada 1"
     inkscape:groupmode="layer"
     id="layer1"
     transform="translate(-138.63989,-255.64607)">
    <path
       style="fill:#fada97;fill-opacity:1;stroke:#000000;stroke-width:0.5;stroke-linecap:round;stroke-linejoin:round;stroke-miterlimit:4;stroke-dasharray:none;stroke-opacity:1;paint-order:fill markers stroke"
       id="path14236"
       sodipodi:type="arc"
       sodipodi:cx="144.21497"
       sodipodi:cy="257.59528"
       sodipodi:rx="1.7001034"
       sodipodi:ry="1.7001034"
       sodipodi:start="5.7655381"
       sodipodi:end="5.7543289"
       sodipodi:arc-type="arc"
       d="m 145.69233,256.754 a 1.7001034,1.7001034 0 0 1 -0.63195,2.31628 1.7001034,1.7001034 0 0 1 -2.31804,-0.62546 1.7001034,1.7001034 0 0 1 0.61896,-2.31979 1.7001034,1.7001034 0 0 1 2.32151,0.61246"
       sodipodi:open="true" />
    <g
       id="g8292"
       style="fill:#ffffff;fill-opacity:1;stroke:#000000;stroke-opacity:1">
      <path
         style="fill:#ffffff;fill-opacity:1;stroke:#000000;stroke-width:0.5;stroke-linecap:round;stroke-linejoin:miter;stroke-miterlimit:4;stroke-dasharray:none;stroke-opacity:1"
         d="m 143.61036,270.18277 c 0.12438,-1.27041 -0.78648,-2.94907 -1.59096,-3.48334 -0.80448,-0.53427 -0.46832,-3.30024 -0.39752,-4.42163 0.0517,-0.81876 1.67208,-0.82023 1.69298,0.0959 l -0.002,-4.58891 c -2.4e-4,-0.54551 1.53582,-0.95848 1.87655,0.0775 -0.029,1.2182 0.0418,3.12996 0.0418,3.12996 0.0946,-0.41984 0.86409,-1.42039 1.72868,-0.14889 0.48495,-1.04167 1.97835,-0.75703 1.92088,0.84773 0.0505,-0.80773 1.68058,-0.9777 2.00455,0.13229 0,0 0.23277,4.80317 -0.58339,5.31046 -0.51177,0.64371 -0.57899,2.17021 -0.57899,2.17021 -0.0828,0.6955 0.006,1.11529 -0.66989,1.12241 -1.91193,0.0202 -5.47223,0.0581 -5.44269,-0.24369 z"
         id="path1148"
         sodipodi:nodetypes="szscsccccccsss" />
      <path
         style="fill:#ffffff;fill-opacity:1;stroke:#000000;stroke-width:0.5;stroke-linecap:round;stroke-linejoin:miter;stroke-miterlimit:4;stroke-dasharray:none;stroke-opacity:1"
         d="m 143.31486,262.3737 0.0255,2.62875"
         id="path5277"
         sodipodi:nodetypes="cc" />
      <path
         style="fill:#ffffff;fill-opacity:1;stroke:#000000;stroke-width:0.5;stroke-linecap:round;stroke-linejoin:miter;stroke-miterlimit:4;stroke-dasharray:none;stroke-opacity:1"
         d="m 145.23121,260.99225 0.001,2.36813"
         id="path5331" />
      <path
         style="fill:#ffffff;fill-opacity:1;stroke:#000000;stroke-width:0.5;stroke-linecap:round;stroke-linejoin:miter;stroke-miterlimit:4;stroke-dasharray:none;stroke-opacity:1"
         d="m 146.95989,260.84336 -0.0141,2.51702"
         id="path5385" />
      <path
         style="fill:#ffffff;fill-opacity:1;stroke:#000000;stroke-width:0.5;stroke-linecap:round;stroke-linejoin:miter;stroke-miterlimit:4;stroke-dasharray:none;stroke-opacity:1"
         d="m 148.88077,261.69109 -0.043,2.59741"
         id="path5515" />
    </g>
    <path
       style="fill:none;stroke:#000000;stroke-width:0.5;stroke-linecap:round;stroke-linejoin:miter;stroke-miterlimit:4;stroke-dasharray:none;stroke-opacity:1"
       d="m 142.70726,258.54203 -2.01933,1.31257"
       id="path16996" />
    <path
       style="fill:none;stroke:#000000;stroke-width:0.5;stroke-linecap:butt;stroke-linejoin:miter;stroke-miterlimit:4;stroke-dasharray:none;stroke-opacity:1"
       d="m 146.03916,257.93623 4.34157,0.40387"
       id="path16998" />
    <path
       style="fill:#0b00ff;fill-opacity:1;stroke:#000000;stroke-width:0.5;stroke-linecap:round;stroke-linejoin:round;stroke-miterlimit:4;stroke-dasharray:none;stroke-opacity:1;paint-order:fill markers stroke"
       id="path17098"
       sodipodi:type="arc"
       sodipodi:cx="139.84816"
       sodipodi:cy="260.29617"
       sodipodi:rx="0.95927459"
       sodipodi:ry="0.95927459"
       sodipodi:start="5.7655381"
       sodipodi:end="5.7543289"
       sodipodi:arc-type="arc"
       d="m 140.68176,259.82149 a 0.95927459,0.95927459 0 0 1 -0.35658,1.30695 0.95927459,0.95927459 0 0 1 -1.30794,-0.35292 0.95927459,0.95927459 0 0 1 0.34924,-1.30892 0.95927459,0.95927459 0 0 1 1.3099,0.34557"
       sodipodi:open="true" />
    <path
       style="fill:#0000ff;fill-opacity:1;stroke:#000000;stroke-width:0.5;stroke-linecap:round;stroke-linejoin:round;stroke-miterlimit:4;stroke-dasharray:none;stroke-opacity:1;paint-order:fill markers stroke"
       id="path17100"
       sodipodi:type="arc"
       sodipodi:cx="151.45934"
       sodipodi:cy="258.57974"
       sodipodi:rx="0.95927459"
       sodipodi:ry="0.95927459"
       sodipodi:start="5.7655381"
       sodipodi:end="5.7543289"
       sodipodi:arc-type="arc"
       d="m 152.29293,258.10506 a 0.95927459,0.95927459 0 0 1 -0.35658,1.30694 0.95927459,0.95927459 0 0 1 -1.30794,-0.35291 0.95927459,0.95927459 0 0 1 0.34925,-1.30892 0.95927459,0.95927459 0 0 1 1.3099,0.34557"
       sodipodi:open="true" />
  </g>
</svg>
